<svg xmlns="http://www.w3.org/2000/svg" xmlns:xlink="http://www.w3.org/1999/xlink" width="100" zoomAndPan="magnify" viewBox="0 0 75 74.999997" height="100" preserveAspectRatio="xMidYMid meet" version="1.0"><defs><filter x="0%" y="0%" width="100%" height="100%" id="526d27e284"><feColorMatrix values="0 0 0 0 1 0 0 0 0 1 0 0 0 0 1 0 0 0 1 0" color-interpolation-filters="sRGB"/></filter><mask id="9fe019e66a"><g filter="url(#526d27e284)"><rect x="-7.5" width="90" fill="#000000" y="-7.5" height="89.999996" fill-opacity="0.94"/></g></mask><clipPath id="4a637bbe1b"><path d="M 0 0 L 75 0 L 75 75 L 0 75 Z M 0 0 " clip-rule="nonzero"/></clipPath><clipPath id="cdf49050b0"><path d="M 15 0 L 60 0 C 68.285156 0 75 6.714844 75 15 L 75 60 C 75 68.285156 68.285156 75 60 75 L 15 75 C 6.714844 75 0 68.285156 0 60 L 0 15 C 0 6.714844 6.714844 0 15 0 Z M 15 0 " clip-rule="nonzero"/></clipPath><clipPath id="4e9175c0ea"><path d="M 0 0 L 75 0 L 75 75 L 0 75 Z M 0 0 " clip-rule="nonzero"/></clipPath><clipPath id="c57106e82b"><path d="M 15 0 L 60 0 C 68.285156 0 75 6.714844 75 15 L 75 60 C 75 68.285156 68.285156 75 60 75 L 15 75 C 6.714844 75 0 68.285156 0 60 L 0 15 C 0 6.714844 6.714844 0 15 0 Z M 15 0 " clip-rule="nonzero"/></clipPath><clipPath id="c91a034f79"><rect x="0" width="75" y="0" height="75"/></clipPath><clipPath id="53a280eefe"><rect x="0" width="75" y="0" height="75"/></clipPath><clipPath id="c5cd3658b6"><path d="M 10.128906 18.136719 L 64.878906 18.136719 L 64.878906 57 L 10.128906 57 Z M 10.128906 18.136719 " clip-rule="nonzero"/></clipPath></defs><g mask="url(#9fe019e66a)"><g transform="matrix(1, 0, 0, 1, 0, -0.000000000000001893)"><g clip-path="url(#53a280eefe)"><g clip-path="url(#4a637bbe1b)"><g clip-path="url(#cdf49050b0)"><g transform="matrix(1, 0, 0, 1, 0, -0.000000000000001893)"><g clip-path="url(#c91a034f79)"><g clip-path="url(#4e9175c0ea)"><g clip-path="url(#c57106e82b)"><rect x="-27.3" width="129.6" fill="#004aad" y="-27.299999" height="129.599995" fill-opacity="1"/></g></g></g></g></g></g></g></g></g><g clip-path="url(#c5cd3658b6)"><path fill="#ffffff" d="M 42.113281 18.480469 L 28.371094 55.125 L 32.65625 56.738281 L 46.398438 20.09375 Z M 19.714844 22.625 L 10.039062 37.609375 L 19.714844 52.59375 L 23.5625 50.109375 L 15.488281 37.609375 L 23.5625 25.109375 Z M 55.054688 22.625 L 51.207031 25.109375 L 59.28125 37.609375 L 51.207031 50.109375 L 55.054688 52.59375 L 64.730469 37.609375 Z M 55.054688 22.625 " fill-opacity="1" fill-rule="nonzero"/></g></svg>